<?xml version="1.0" encoding="utf-8"?>
<!-- Generator: Adobe Illustrator 27.2.0, SVG Export Plug-In . SVG Version: 6.00 Build 0)  -->
<svg version="1.1" id="Layer_1" xmlns="http://www.w3.org/2000/svg" xmlns:xlink="http://www.w3.org/1999/xlink" x="0px" y="0px"
	 width="1920px" height="1080px" viewBox="0 0 1920 1080" style="enable-background:new 0 0 1920 1080;" xml:space="preserve">
<style type="text/css">
	.st0{filter:url(#AI_GaussianBlur_7);}
	.st1{fill:none;stroke:#FF9E00;stroke-width:4;stroke-miterlimit:10;}
	.st2{fill:none;stroke:#FF9E00;stroke-width:4;stroke-miterlimit:10;}
	.st3{fill:none;stroke:#AD00FF;stroke-width:4;stroke-miterlimit:10;}
	.st4{fill:none;stroke:#AD00FF;stroke-width:4;stroke-miterlimit:10;}
</style>
<filter  id="AI_GaussianBlur_7">
	<feGaussianBlur  stdDeviation="7"></feGaussianBlur>
</filter>
<rect id="Background" width="1920" height="1080"/>

<g stroke-linejoin="round" id="Glowing_Triangle">
	<g id="Triangle_00000104672896638482492470000007582548116567217065_">
		<polygon class="st1" points="526.09,147.84 214.34,234.28 439.56,478.77 		"/>
		<polygon class="st1" filter="url(#AI_GaussianBlur_7)" points="526.09,147.84 214.34,234.28 439.56,478.77 		"/>
	</g>
</g>

<g stroke-linejoin="round" id="Glowing_Rect_00000103981262481945465210000009253580889150123170_">
	<polygon class="st1" points="197.72,1138.61 -80.02,1035.23 21.82,753.28 299.56,856.66 	"/>
	<polygon class="st1" filter="url(#AI_GaussianBlur_7)" points="197.72,1138.61 -80.02,1035.23 21.82,753.28 299.56,856.66 	"/>
</g>

<g stroke-linejoin="round" id="Glowing_Rect">
	<polygon class="st4" points="1096.57,1034.23 850.17,1200.4 686.48,950.26 932.88,784.08 	"/>
	<polygon class="st4" filter="url(#AI_GaussianBlur_7)" points="1096.57,1034.23 850.17,1200.4 686.48,950.26 932.88,784.08 	"/>
</g>
<g stroke-linejoin="round" id="Glowing_Polygon">	
	<polygon class="st1" points="1490.16,-82.54 1391.74,-2.61 1389.45,139.32 1484.63,260.1 1621.53,288.98 1719.95,209.05 
		1722.24,67.13 1627.06,-53.65 	"/>
		<polygon class="st1" filter="url(#AI_GaussianBlur_7)" points="1490.16,-82.54 1391.74,-2.61 1389.45,139.32 1484.63,260.1 1621.53,288.98 1719.95,209.05 
		1722.24,67.13 1627.06,-53.65 	"/>
</g>

<g stroke-linejoin="round" id="Glowing_Random">
	<g >
		<path class="st1"  d="M 1492 1159 L 1656 862 C 1657 860.5 1658.55 859.81 1659.11 860.62 L 1767.89 1019.38 C 1768.44 1020.19 1770.05 1019.3 1771.1 1017.6 L 1980 684" />
	</g>
	<g filter="url(#AI_GaussianBlur_7)" >
		<path class="st1"  d="M 1492 1159 L 1656 862 C 1657 860.5 1658.55 859.81 1659.11 860.62 L 1767.89 1019.38 C 1768.44 1020.19 1770.05 1019.3 1771.1 1017.6 L 1980 684" />
	</g>
</g>

<g stroke-linejoin="round" id="Glowing_Triangle_00000171709727505032696160000017895041829892117396_">
	<g  id="Triangle_00000137849645606886689320000009196889094911917482_">
		<polygon class="st4" points="599.62,157.03 287.87,243.47 513.1,487.96 		"/>
		<polygon class="st4" filter="url(#AI_GaussianBlur_7)"  points="599.62,157.03 287.87,243.47 513.1,487.96 		"/>
	</g>
</g>

<g stroke-linejoin="round" id="Glowing_Polygon_00000078764956676756728830000008467447406710303151_">
	<polygon class="st4" points="1595.87,-15.9 1497.45,64.03 1495.15,205.96 1590.34,326.74 1727.23,355.62 1825.65,275.69 
		1827.94,133.77 1732.76,12.98 	"/>
	<polygon class="st4" filter="url(#AI_GaussianBlur_7)"  points="1595.87,-15.9 1497.45,64.03 1495.15,205.96 1590.34,326.74 1727.23,355.62 1825.65,275.69 
		1827.94,133.77 1732.76,12.98 	"/>
</g>
</svg>
